<svg xmlns="http://www.w3.org/2000/svg" width="666.666" height="666.666" viewBox="15.62 25.812 472.66 451.386">
  <path fill="black" stroke="#000" d="M15.62 85.94c67.09 3.34 30.55 57.93 68.39 109.31 16.42 22.3 45.67 28.58 72.24 26.69 23.87-1.69 42.81-11.89 59.55 28.41 9.76 23.49 5.39 31.13 3.24 54.34l-4.7 62.35-7.95 39.22c-1.57 14.05-10.24 49.55-2.57 60.6 11.05 15.91 50.59 12.2 61.24-2.58 9.67-13.43 8.54-30.6 8.36-46.31l-9.8-101.56c-5.57-27.8-13.22-65.39 7.85-89.22 4-4.53 7.74-7.46 13.76-8.75l78.05 8.11c22.62-.27 30.43-.81 44.56-19.7 6.28-8.41 17.1-30.99 26.26-33.67 11.03-3.21 20.81 9.46 30.74 13.44 10.69 4.28 14.11 1.35 23.44-3.03l-18.46-31.25c-9.56-19.15-9.7-34.06-25.02-50.61-20.84-22.52-40.57-27.45-69.8-27.51-33.62-.07-56-3.34-81.48 23.8-26.02 27.72-32.05 108.52-50.36 97.29 0 0-15.1-16.6-20.02-33.44l-1.19-25.15c-3.53-28.27-11.91-60.41-31.35-81.87-10.04-11.07-23.78-20.84-38.26-25.03-45.51-13.15-122.05 6.19-136.72 56.12Zm229.25 117.67-7.57 11.23h6.11c41.01-41.5 31.28-83.95 58.25-112.56 29.39-31.17 107.25-27.92 135.96 3.38 11.53 12.57 30 58.83 38.94 77.93-14.92-8.77-20.24-22.3-35.19-22.3-20.28 0-23.5 22-46.85 24.62-26.48 2.96-38-20.03-58.57-16.04-14.79 2.87-23.74 17.81-35.51 26.38-14.48 10.53-28.85 13.32-40.02 31.44-13.31 24.24-5.87 62.94 0 88.72l9.1 101.56c.19 17.32 1.74 48.13-20.18 53.48-23.94 5.83-24.83-25.77-25.97-41.76l10.29-140.63c2.22-31.23-7.59-67.38-41.52-78.37 0 0 10.5-9.03 5.13-15.87-11.46 7.38-19.68 14.79-33.21 18.15-9.98 2.13-17.36 1.61-27.34 0-37.81-5.12-53.54-24.48-63.93-60.63-8.95-31.11 4.13-61.33-45.45-74.22 14.01-19.06 18.54-20.83 39.07-31.09 19.55-9.78 20.6-11.56 42.97-11.86 12.32-.17 30.93-.81 42.31 3.22 64.94 22.97 59.57 99.12 65.11 117.86 1.95 22.46 11.47 34.67 28.07 47.36Zm-6.83 10.75"/>
</svg>
